<svg width="32" height="26" viewBox="0 0 32 26" fill="none" xmlns="http://www.w3.org/2000/svg">
<path d="M32 3.05H30.47V22.85H32V3.05Z" fill="#3A2175"/>
<path d="M30.47 22.85L28.95 22.85V24.38H30.47V22.85Z" fill="#3A2175"/>
<path d="M30.47 1.52H28.95V3.05H30.47V1.52Z" fill="#3A2175"/>
<path d="M28.95 4.57H27.43V7.62H28.95V4.57Z" fill="#3A2175"/>
<path d="M28.95 24.38H3.05V25.9H28.95V24.38Z" fill="#3A2175"/>
<path d="M27.43 19.81H25.9V21.33H27.43V19.81Z" fill="#3A2175"/>
<path d="M27.43 7.62H25.9V9.14H27.43V7.62Z" fill="#3A2175"/>
<path d="M25.9 18.28H24.38V19.81H25.9V18.28Z" fill="#3A2175"/>
<path d="M25.9 9.14H24.38V10.66H25.9V9.14Z" fill="#3A2175"/>
<path d="M24.38 16.76H22.85V18.28H24.38V16.76Z" fill="#3A2175"/>
<path d="M24.38 10.66H22.85V12.19H24.38V10.66Z" fill="#3A2175"/>
<path d="M22.85 15.24H21.33V16.76L22.85 16.76V15.24Z" fill="#3A2175"/>
<path d="M22.85 12.19H21.33V13.71H22.85V12.19Z" fill="#3A2175"/>
<path d="M21.33 13.71H18.28V15.24H21.33V13.71Z" fill="#3A2175"/>
<path d="M18.28 15.24H13.71V16.76H18.28V15.24Z" fill="#3A2175"/>
<path d="M13.71 13.71H10.66V15.24H13.71V13.71Z" fill="#3A2175"/>
<path d="M10.66 15.24H9.14V16.76H10.66V15.24Z" fill="#3A2175"/>
<path d="M10.66 12.19H9.14V13.71H10.66V12.19Z" fill="#3A2175"/>
<path d="M9.14 16.76L7.62 16.76V18.28H9.14V16.76Z" fill="#3A2175"/>
<path d="M9.14 10.66H7.62V12.19H9.14V10.66Z" fill="#3A2175"/>
<path d="M7.62 18.28H6.09V19.81H7.62V18.28Z" fill="#3A2175"/>
<path d="M7.62 9.14H6.09V10.66H7.62V9.14Z" fill="#3A2175"/>
<path d="M6.09 19.81H4.57V21.33H6.09V19.81Z" fill="#3A2175"/>
<path d="M6.09 7.62H4.57V9.14H6.09V7.62Z" fill="#3A2175"/>
<path d="M28.95 0H3.05V1.52H28.95V0Z" fill="#3A2175"/>
<path d="M4.57 4.57H3.05V7.62H4.57V4.57Z" fill="#3A2175"/>
<path d="M3.05 22.85H1.52V24.38H3.05V22.85Z" fill="#3A2175"/>
<path d="M3.05 1.52H1.52V3.05H3.05V1.52Z" fill="#3A2175"/>
<path d="M1.52 3.05H0V22.85L1.52 22.85V3.05Z" fill="#3A2175"/>
</svg>
